<svg preserveAspectRatio="none" width="100%" height="100%" overflow="visible" style="display: block;" viewBox="0 0 18 20.2947" fill="none" xmlns="http://www.w3.org/2000/svg">
<g id="vector">
<path fill-rule="evenodd" clip-rule="evenodd" d="M9 0L12.5409 1.99176L11.5604 3.73491L10 2.8572V5.14735H8V2.8572L6.43962 3.73491L5.45909 1.99176L9 0ZM14.3613 3.01571L18 5.0625V9.14735H16V7.3794L14.0359 8.51337L13.0359 6.78132L14.9804 5.65867L13.3807 4.75886L14.3613 3.01571ZM4.61925 4.75887L3.01961 5.65867L4.9641 6.78132L3.9641 8.51337L2 7.3794L2 9.14735H0L1.54972e-06 5.0625L3.63873 3.01572L4.61925 4.75887ZM2 11.1473V12.9153L3.9641 11.7813L4.9641 13.5134L3.01961 14.636L4.61925 15.5358L3.63873 17.279L3.57628e-07 15.2322V11.1473H2ZM18 11.1473V15.2322L14.3613 17.279L13.3807 15.5358L14.9804 14.636L13.0359 13.5134L14.0359 11.7813L16 12.9153V11.1473H18ZM10 15.1473V17.4375L11.5604 16.5598L12.5409 18.3029L9 20.2947L5.45908 18.3029L6.43961 16.5598L8 17.4375V15.1473H10Z" fill="var(--fill-0, #1D1D1D)"/>
<path fill-rule="evenodd" clip-rule="evenodd" d="M12.0981 9.51337L10 10.7247V13.1474H8V10.7247L5.90192 9.51337L6.90192 7.78132L9 8.99265L11.0981 7.78132L12.0981 9.51337Z" fill="var(--fill-0, #1D1D1D)"/>
</g>
</svg>
